<?xml version="1.0" encoding="UTF-8" standalone="no"?>
<!-- Created with Inkscape (http://www.inkscape.org/) -->

<svg
   version="1.1"
   id="svg3149"
   width="75"
   height="75"
   viewBox="0 0 225 225"
   sodipodi:docname="http.png"
   inkscape:export-filename="../Documents/miracles/client/image/http.svg"
   inkscape:export-xdpi="96"
   inkscape:export-ydpi="96"
   xmlns:inkscape="http://www.inkscape.org/namespaces/inkscape"
   xmlns:sodipodi="http://sodipodi.sourceforge.net/DTD/sodipodi-0.dtd"
   xmlns="http://www.w3.org/2000/svg"
   xmlns:svg="http://www.w3.org/2000/svg">
  <defs
     id="defs3153" />
  <sodipodi:namedview
     id="namedview3151"
     pagecolor="#ffffff"
     bordercolor="#000000"
     borderopacity="0.25"
     inkscape:showpageshadow="2"
     inkscape:pageopacity="0.0"
     inkscape:pagecheckerboard="0"
     inkscape:deskcolor="#d1d1d1"
     showgrid="false" />
  <g
     inkscape:groupmode="layer"
     inkscape:label="Image"
     id="g3155">
    <path
       style="fill:#000000;stroke:#000000;stroke-width:0.422932"
       d="m 67.3099,173.26417 c -0.12861,-0.12862 -6.933,-0.24748 -15.12086,-0.26416 -14.13554,-0.0288 -16.62272,-0.18711 -22.36303,-1.42364 -0.98105,-0.21133 -6.78308,-3.02946 -7.56887,-3.67632 -0.25402,-0.20909 -0.58708,-0.25495 -0.74014,-0.10189 -0.15305,0.15306 -0.27828,0.0562 -0.27828,-0.21514 0,-0.27138 -0.17075,-0.49342 -0.37944,-0.49342 -0.44663,0 -2.20481,-1.43906 -5.68392,-4.65225 -2.51882,-2.32631 -7.0475401,-8.01911 -7.0475401,-8.85907 0,-0.245 -0.16025,-0.44545 -0.35612,-0.44545 -0.40699,0 -2.60441,-5.39117 -2.60441,-6.3897 0,-0.36254 -0.12613,-0.7853 -0.28029,-0.93945 -0.15415,-0.15416 -0.34778,-0.89958 -0.43029,-1.65649 -0.0825,-0.75691 -0.4261099,-3.22487 -0.7635899,-5.48436 -0.63087,-4.22381 -0.40705,-8.60581 0.6974799,-13.655 0.40778,-1.86407 3.48576,-8.95429 4.13105,-9.51597 0.13362,-0.11631 0.80815,-1.06791 1.4989601,-2.11466 1.4325,-2.17063 7.71852,-8.60402 9.69049,-9.91769 2.86212,-1.90667 6.98637,-3.828543 11.02988,-5.139853 2.33367,-0.75681 4.36562,-1.6276 4.51545,-1.93508 0.25324,-0.51974 0.93313,-3.38574 1.38675,-5.84572 1.27605,-6.920021 7.92619,-18.296234 14.17268,-24.244851 1.2639,-1.203631 2.84868,-2.711799 3.52172,-3.351484 0.67305,-0.639685 1.3038,-1.163064 1.40168,-1.163064 0.0979,0 1.08241,-0.642994 2.18786,-1.428875 2.52142,-1.792521 9.09893,-5.149545 10.89149,-5.558796 0.23261,-0.05311 1.37453,-0.422907 2.53759,-0.821779 2.44548,-0.838676 3.25155,-1.038919 5.28665,-1.313317 0.81415,-0.109772 2.56393,-0.39233 3.8884,-0.627907 3.0494,-0.542376 8.7984,-0.558141 11.54863,-0.03167 1.16307,0.222643 3.16142,0.534254 4.44079,0.692469 1.27937,0.158214 2.51645,0.426803 2.74906,0.596863 0.23262,0.17006 1.27938,0.54485 2.32613,0.832866 3.47955,0.9574 8.44847,3.37704 12.36599,6.021674 1.33489,0.901159 2.49456,1.638471 2.57704,1.638471 0.27657,0 3.31893,2.723395 6.23479,5.581131 1.58932,1.557639 3.97633,4.317272 5.30448,6.132519 1.32814,1.815246 2.48611,3.386875 2.57326,3.492509 0.0872,0.105634 1.72146,-0.593581 3.6318,-1.553811 1.91035,-0.960229 3.61365,-1.766069 3.78511,-1.790754 0.17147,-0.02469 1.12567,-0.393766 2.12046,-0.82018 2.60764,-1.117765 8.59088,-1.864742 12.4578,-1.555292 4.4918,0.359456 6.43251,0.687492 6.70842,1.133915 0.12788,0.206912 0.51849,0.376204 0.86802,0.376204 1.37349,0 7.00804,3.160571 9.7515,5.46988 2.80559,2.361607 5.53038,5.557658 7.14534,8.381159 0.4324,0.75599 0.93547,1.37453 1.11793,1.37453 0.18246,0 0.29404,0.14274 0.24795,0.31719 -0.15247,0.57721 0.55661,2.2204 0.95816,2.2204 0.21694,0 0.36422,0.14274 0.32729,0.3172 -0.0369,0.17446 0.0541,0.60268 0.20224,0.9516 1.06355,2.50466 1.55663,6.2085 1.55663,11.692883 v 6.01704 l 7.25062,0.0315 c 4.89205,0.0212 8.15951,0.24132 10.04465,0.6766 2.89638,0.66877 6.8817,2.51016 9.21552,4.25795 0.74047,0.55454 1.46002,1.00826 1.59899,1.00826 0.47789,0 5.12425,4.86652 6.86458,7.18985 0.95833,1.27937 2.37077,3.5632 3.13875,5.07518 1.23508,2.43159 1.44408,3.35057 1.80984,7.95762 0.27647,3.48231 0.26868,6.98656 -0.0235,10.5733 -0.38544,4.73149 -0.59996,5.68927 -1.81731,8.11382 -0.75916,1.51198 -1.80549,3.32002 -2.32519,4.01786 -0.5197,0.69784 -1.02209,1.45912 -1.11644,1.69173 -0.17179,0.42357 -6.68559,6.62242 -8.2315,7.8335 -1.1862,0.92926 -4.12567,2.41337 -7.78428,3.9302 l -3.1877,1.32159 -64.71168,0.15075 c -35.59143,0.0829 -64.81691,0.0455 -64.94552,-0.0831 z M 54.14285,157.7005 c 0.35968,-0.35967 0.50752,-2.88533 0.50752,-8.67011 v -8.16259 h 7.18985 7.18985 v 8.61798 8.61798 l 4.22932,0.0729 4.22933,0.0729 v -20.32149 -20.32149 h -4.22933 -4.22932 v 8.03571 8.03572 h -7.18985 -7.18985 l -0.0501,-7.50705 c -0.0276,-4.12888 -0.0149,-7.76366 0.0281,-8.07729 0.0634,-0.46231 -0.70763,-0.51367 -4.07348,-0.27138 -2.28342,0.16437 -4.28815,0.42424 -4.45496,0.57748 -0.16682,0.15324 -0.33043,8.79509 -0.36359,19.2041 -0.0447,14.0344 0.0691,19.08144 0.44052,19.52894 0.82486,0.9939 7.09312,1.44065 7.96602,0.56775 z m 47.11642,-15.41969 c -0.0806,-10.22951 0.0264,-16.05336 0.30119,-16.38445 0.30144,-0.36321 1.14339,-0.42418 2.87419,-0.20813 1.34633,0.16806 3.73252,0.32162 5.30266,0.34125 l 2.85479,0.0357 v -4.23454 -4.23453 l -15.54276,0.11094 -15.54276,0.11094 -0.12183,4.18816 -0.12183,4.18815 4.56262,-0.29109 c 2.50944,-0.1601 4.94325,-0.33189 5.40848,-0.38176 0.83115,-0.0891 0.84779,0.19379 0.95653,16.26368 l 0.11067,16.35436 4.54159,0.006 4.54159,0.006 -0.12513,-15.87076 z m 32.06089,-0.28128 0.004,-16.14583 4.33068,-0.0927 c 6.76824,-0.14487 6.48983,0.0735 6.76349,-5.30475 l 0.14552,-2.85986 -15.66886,0.1108 -15.66885,0.11079 -0.12184,4.18897 -0.12183,4.18897 4.88657,-0.27909 c 2.68762,-0.15351 5.12144,-0.32567 5.4085,-0.38258 0.4052,-0.0803 0.54666,3.55441 0.63258,16.25382 l 0.11067,16.3573 h 4.64732 4.64732 l 0.004,-16.14584 z m 22.89446,9.62218 c -0.21519,-9.30655 -0.61262,-8.63925 5.14537,-8.63925 7.5934,0 11.5568,-1.42579 14.23297,-5.12014 1.43686,-1.98353 2.55366,-5.45343 2.55366,-7.93426 0,-4.62287 -3.49151,-9.59068 -7.59051,-10.79997 -2.52396,-0.74462 -13.72847,-1.59178 -19.5829,-1.48064 l -3.70066,0.0702 v 20.21088 20.21089 l 4.54653,0.006 4.54652,0.006 -0.15098,-6.52939 z"
       id="path3175" />
  </g>
</svg>
